<?xml version="1.0" encoding="utf-8"?>
<!-- Generator: Adobe Illustrator 24.0.2, SVG Export Plug-In . SVG Version: 6.00 Build 0)  -->
<svg version="1.1" id="Capa_1" xmlns="http://www.w3.org/2000/svg" xmlns:xlink="http://www.w3.org/1999/xlink" x="0px" y="0px"
	 viewBox="0 0 512 512" style="enable-background:new 0 0 512 512;" xml:space="preserve">
<style type="text/css">
	.st0{fill:#FF6600;}
	.st1{fill:#FFFFFF;}
</style>
<g>
	<g transform="translate(0.000000,512.000000) scale(0.100000,-0.100000)">
		<path class="st0" d="M3300,5109c-24-5-68-24-98-42c-34-21-329-308-818-797l-764-765V1900V295l24-58c31-74,105-156,176-193l55-29
			h1490h1490l50,26c73,39,157,132,183,202l22,58v1602v1602l-762,763c-420,419-780,774-801,788C3470,5108,3384,5126,3300,5109z
			 M3441,4779c44-15,104-73,129-124c26-53,25-127-1-185c-27-60-45-79-104-106c-157-74-325,32-325,204c0,82,68,182,141,208
			C3325,4792,3398,4793,3441,4779z M3040,2370V1190h675h675V845V500H3365H2340v1518c0,835,3,1522,7,1525c3,4,161,7,350,7h343V2370z"
			/>
		<path class="st0" d="M2525,4880c-27-10-113-41-190-69c-172-61-333-119-490-178c-66-24-160-58-210-75c-86-30-249-90-344-126
			c-41-16-46-22-88-112c-25-52-73-156-108-230c-35-74-97-207-138-295s-109-232-151-320s-76-163-76-167s-31-72-69-150
			c-195-405-221-460-221-469c0-5-31-71-69-147c-37-75-72-148-76-162s-36-81-70-150s-66-136-70-150s-41-92-81-175L0,1755v-311
			c0-284,2-312,18-326c17-16,60-37,292-144c69-31,138-65,155-76c16-10,36-18,43-18s76-31,153-70c77-38,150-72,162-76
			c12-3,72-30,132-59c87-43,298-140,373-172c9-4,12,314,12,1574v1579l623,622c342,342,620,622,617,621
			C2577,4899,2553,4890,2525,4880z"/>
	</g>
	<path class="st1" d="M304,157h-34.3c-18.9,0-34.7,0.3-35,0.7c-0.4,0.3-0.7,69-0.7,152.5V462h102.5H439v-34.5V393h-67.5H304V275V157
		z"/>
	<path class="st1" d="M346.5,75.6c5.9-2.7,7.7-4.6,10.4-10.6c2.6-5.8,2.7-13.2,0.1-18.5c-2.5-5.1-8.5-10.9-12.9-12.4
		c-4.3-1.4-11.6-1.3-16,0.3C320.8,37,314,47,314,55.2C314,72.4,330.8,83,346.5,75.6z"/>
</g>
</svg>
